<?xml version="1.0" encoding="UTF-8" standalone="no"?><!DOCTYPE svg PUBLIC "-//W3C//DTD SVG 1.1//EN" "http://www.w3.org/Graphics/SVG/1.1/DTD/svg11.dtd"><svg width="100%" height="100%" viewBox="0 0 4961 3508" version="1.1" xmlns="http://www.w3.org/2000/svg" xmlns:xlink="http://www.w3.org/1999/xlink" xml:space="preserve" xmlns:serif="http://www.serif.com/" style="fill-rule:evenodd;clip-rule:evenodd;stroke-linejoin:round;stroke-miterlimit:2;"><g><path d="M295.276,1869.223l0,-876.137l1755.363,0l0,308.186l-308.186,0l0,400.941l308.186,-0l0,298.212l-308.186,0l0,437.843l308.186,0l0,310.181l-647.29,0l0,-477.738l-206.455,0l-78.792,477.738l-822.826,0l-0,-862.741l91.2,0c2.309,0 3.617,-0.192 3.925,-0.577c0.308,-0.385 0.462,-13.599 0.462,-15.908l-95.587,0Zm706.775,-567.951l-380.802,-0l286.879,514.963l93.922,-514.963Zm-120.062,658.282l-260.74,478.721l173.428,0l87.312,-478.721Zm-448.476,344.647l17.03,-16.517c-0.173,-152.402 -0.26,-381.733 -0.26,-389.269l-0,-447.018l-16.477,-15.958l0,375.745l-95.587,0c0,2.309 0.154,15.518 0.462,15.902c0.308,0.385 1.616,0.577 3.925,0.577l91.2,0l0,58.876c0,8.021 -0.098,267.307 -0.294,417.661Zm171.778,-166.604l16.477,-15.98l-0,-504.139l-16.477,-15.958l0,536.077Zm85.743,-83.16l16.509,-16.011l0,-222.794c0,-2.309 -0.192,-3.656 -0.577,-4.041c-0.385,-0.385 -13.623,-0.577 -15.931,-0.577l-0,243.423Zm85.775,-83.191l16.483,-15.986l0,-139.628c0,-2.309 -0.192,-3.656 -0.577,-4.041c-0.385,-0.385 -13.597,-0.577 -15.906,-0.577l0,160.232Zm-240.784,-436.809l-16.475,-15.956l0,362.618c0,1.847 0.115,3.04 0.346,3.579c0.231,0.539 0.885,0.885 1.963,1.039l14.166,0l-0,-351.279Zm706.746,447.039l155.589,0l0,-690.177l-56.85,0l-98.739,690.177Z"/><path d="M3181.651,1467.397l-0.025,-361.296l-88.876,-17.556l0,-71.32l208.474,-23.042l36.209,53.764c27.797,-16.824 56.325,-30.174 85.584,-40.049c29.26,-9.875 58.519,-14.813 87.779,-14.813c35.111,0 63.822,4.938 86.133,14.813c22.31,9.875 40.049,25.419 53.216,46.632c13.167,-10.972 30.905,-21.396 53.216,-31.271c22.31,-9.875 45.901,-17.739 70.772,-23.591c24.871,-5.852 46.45,-8.778 64.737,-8.778c56.325,0 97.471,12.801 123.439,38.403c25.968,25.602 38.952,66.565 38.952,122.89l0.016,315.213l0.254,1142.377l-0,57.479l76.806,15.361l0,65.834l-309.42,0l0,-65.834l66.931,-15.361l0,-57.479l-0.261,-1142.377l-0.009,-282.296c0,-36.574 -5.12,-60.896 -15.361,-72.966c-10.241,-12.07 -31.454,-18.104 -63.64,-18.104c-13.898,0 -29.808,1.097 -47.73,3.292c-17.921,2.194 -32.003,5.12 -42.243,8.778c2.926,8.778 4.755,18.287 5.486,28.528c0.731,10.241 1.097,19.384 1.097,27.431l0.014,305.337l0.256,1142.377l-0,57.479l68.028,15.361l0,65.834l-302.836,0l0,-65.834l70.223,-15.361l0,-57.479l-0.261,-1142.377l-0.009,-282.296c0,-36.574 -5.303,-60.896 -15.91,-72.966c-10.607,-12.07 -32.003,-18.104 -64.188,-18.104c-11.704,0 -24.505,0.914 -38.403,2.743c-13.898,1.829 -28.894,4.938 -44.987,9.326l0.025,361.296l0.244,1142.377l-0,57.479l68.028,15.361l0,65.834l-317.1,0l0,-65.834l85.584,-15.361l0,-57.479l-0.244,-1142.377Zm-353.309,0l-0.025,-361.296l-89.973,-18.653l0,-70.223l207.377,-23.042l46.084,17.556l0.042,455.658l0.227,1142.377l-0,57.479l73.515,15.361l0,65.834l-323.684,0l0,-65.834l86.681,-15.361l0,-57.479l-0.244,-1142.377Zm1755.564,0l0.253,1142.377l-0,45.409l81.195,15.361l0,60.348c-2.194,0.731 -9.692,3.292 -22.493,7.681c-12.801,4.389 -28.528,8.412 -47.181,12.07c-18.653,3.657 -37.855,5.486 -57.605,5.486c-34.38,0 -58.702,-4.389 -72.966,-13.167c-14.264,-8.778 -24.688,-21.945 -31.271,-39.5l-7.681,0c-5.12,5.12 -14.264,12.618 -27.431,22.493c-13.167,9.875 -29.625,18.653 -49.375,26.334c-19.75,7.681 -42.792,11.521 -69.126,11.521c-38.037,0 -69.126,-6.949 -93.265,-20.847c-24.139,-13.898 -41.695,-31.82 -52.667,-53.764c-10.972,-21.945 -16.458,-45.352 -16.458,-70.223c0,-3.12 0.072,-6.187 0.217,-9.201l0.049,0c1.586,-29.771 10.252,-845.899 25.799,-1025.283c2.435,-28.094 40.049,-38.586 67.48,-51.021c27.431,-12.435 55.776,-21.213 85.036,-26.334l123.987,-21.945l0,-17.795l-0,-295.462c0,-13.167 -1.28,-25.968 -3.84,-38.403c-2.56,-12.435 -8.961,-22.493 -19.202,-30.174c-10.241,-7.681 -26.699,-11.521 -49.375,-11.521c-13.167,0 -22.859,0.549 -29.077,1.646c-6.218,1.097 -11.155,2.377 -14.813,3.84l-15.361,97.654c-1.463,0.731 -8.595,2.926 -21.396,6.583c-12.801,3.657 -27.614,5.486 -44.438,5.486c-27.797,0 -48.827,-4.572 -63.091,-13.715c-14.264,-9.144 -21.396,-27.614 -21.396,-55.41c0,-24.871 7.864,-46.267 23.591,-64.188c15.727,-17.921 35.843,-32.917 60.348,-44.987c24.505,-12.07 50.656,-21.03 78.452,-26.882c27.797,-5.852 53.764,-8.778 77.904,-8.778c41.695,0 77.904,4.389 108.626,13.167c30.723,8.778 54.496,24.505 71.32,47.181c16.824,22.676 25.236,54.862 25.236,96.557l0.016,317.407Zm-292.135,1142.377l0.114,0c4.138,33.199 26.951,49.798 68.438,49.798c11.704,0 22.31,-1.646 31.82,-4.938c9.509,-3.292 19.019,-7.498 28.528,-12.618l0,-32.243l-0.269,-1040.096c-40.232,3.657 -69.491,9.509 -87.779,17.556c-18.287,8.046 -29.808,17.373 -34.563,27.979c-4.755,10.607 -7.132,21.396 -7.132,32.368c0,3.731 0.46,958.801 0.843,962.192Zm-2138.228,-1142.377l-0.025,-361.296l-86.681,-18.653l0,-70.223l200.794,-23.042l37.306,57.056l4.389,0c27.797,-19.019 56.325,-33.831 85.584,-44.438c29.26,-10.607 55.227,-15.91 77.904,-15.91c54.13,0 94.362,13.167 120.696,39.5c26.334,26.334 39.5,66.565 39.5,120.696l0.016,316.31l0.253,1142.377l-0,57.479l79.001,15.361l0,65.834l-310.517,0l0,-65.834l68.028,-15.361l0,-57.479l-0.259,-1142.377l-0.01,-287.782c0,-33.648 -4.755,-55.959 -14.264,-66.931c-9.509,-10.972 -30.357,-16.458 -62.542,-16.458c-9.509,0 -19.75,0.366 -30.723,1.097c-10.972,0.731 -25.968,2.926 -44.987,6.583l0.025,363.491l0.244,1142.377l-0,57.479l68.028,15.361l0,65.834l-318.198,0l0,-65.834l86.681,-15.361l0,-57.479l-0.244,-1142.377Zm852.532,-526.927c-25.602,0 -47.364,-8.778 -65.285,-26.334c-17.921,-17.556 -26.882,-40.232 -26.882,-68.028c0,-27.065 10.058,-50.838 30.174,-71.32c20.116,-20.482 44.072,-30.723 71.869,-30.723c26.334,0 48.644,8.046 66.931,24.139c18.287,16.093 27.431,39.135 27.431,69.126c0,27.065 -9.509,51.021 -28.528,71.869c-19.019,20.847 -44.255,31.271 -75.709,31.271Zm1417.625,26.334l-42.792,-51.57l100.945,-123.987c8.046,-10.241 17.373,-20.116 27.979,-29.625c10.607,-9.509 22.493,-14.63 35.66,-15.361c14.63,-0.731 30.174,7.498 46.632,24.688c16.458,17.19 24.688,44.072 24.688,80.647l-193.113,115.209Z"/></g><g><g transform="matrix(145.935197,0,0,145.935197,4668.856775,3152.667696)"></g><text x="4353.929px" y="3152.668px" style="font-family:'FaustinaRoman-Light', 'Faustina';font-weight:300;font-size:145.935px;">nimá</text><g transform="matrix(145.935197,0,0,145.935197,4035.254326,3153.543307)"></g><text x="3711.278px" y="3153.543px" style="font-family:'BadeenDisplay-Regular', 'Badeen Display';font-size:145.935px;">SUM</text><g transform="matrix(145.935197,0,0,145.935197,4330.891288,3153.543307)"></g><text x="4237.473px" y="3153.543px" style="font-family:'AntonSC-Regular', 'Anton SC';font-size:145.935px;">Æ</text><g transform="matrix(145.935197,0,0,145.935197,4206.321253,3140.146912)"></g><text x="4061.811px" y="3140.147px" style="font-family:'AntonSC-Regular', 'Anton SC';font-size:145.935px;">(Σ)</text></g></svg>